<?xml version="1.0" encoding="UTF-8" standalone="no"?>
<svg
   width="186.61401"
   height="105.18401"
   viewBox="0 0 186.61401 105.18401"
   fill="none"
   version="1.1"
   id="svg1004"
   sodipodi:docname="big-logo.svg"
   inkscape:version="1.1.1 (3bf5ae0d25, 2021-09-20)"
   xmlns:inkscape="http://www.inkscape.org/namespaces/inkscape"
   xmlns:sodipodi="http://sodipodi.sourceforge.net/DTD/sodipodi-0.dtd"
   xmlns="http://www.w3.org/2000/svg"
   xmlns:svg="http://www.w3.org/2000/svg">
  <sodipodi:namedview
     id="namedview1006"
     pagecolor="#ffffff"
     bordercolor="#666666"
     borderopacity="1.0"
     inkscape:pageshadow="2"
     inkscape:pageopacity="0.0"
     inkscape:pagecheckerboard="0"
     showgrid="false"
     inkscape:zoom="1.4292229"
     inkscape:cx="29.386599"
     inkscape:cy="195.56082"
     inkscape:window-width="1920"
     inkscape:window-height="1059"
     inkscape:window-x="0"
     inkscape:window-y="0"
     inkscape:window-maximized="1"
     inkscape:current-layer="g980"
     lock-margins="true"
     fit-margin-top="16"
     fit-margin-left="16"
     fit-margin-right="16"
     fit-margin-bottom="16" />
  <g
     filter="url(#filter0_d_4_6)"
     id="g980"
     transform="translate(16,6.2714486)">
    <g
       clip-path="url(#clip0_4_6)"
       id="g978">
      <path
         fill-rule="evenodd"
         clip-rule="evenodd"
         d="m 90.614025,44.412756 c 0.5,5.5 3.8,16.9998 12.999995,18.9998 9.2,2 21.167,0.167 26,-1 v 2.5 c 4.334,-2.166 13.7,-7.9998 16.5,-13.9998 l 4,-1.5 c 1.5,-4 4.5,-13 4.5,-17 0,-5 -7,-20.499999 -16,-21.499999 -0.869,-0.0965 -1.794,-0.2164 -2.767,-0.3425 v 0 -10e-5 c -9.102,-1.1795005 -22.392,-2.9018005 -33.233,8.8426 -9.599995,10.399999 -12.817995,15.999999 -11.999995,24.999999 z m 30.499995,5 c -13.2,0 -16.5,-8.6666 -16.5,-13 0,-7 7.7,-15.8 18.5,-16.999999 10.8,-1.2 14.834,8.166699 15.5,12.999999 -0.333,5.6667 -4.3,17 -17.5,17 z m -59.499995,13.9998 c 0.236,0.108 1.039,0.683 2.025,1.388 1.915,1.371 4.518,3.234 4.975,3.112 0.349,-0.093 -0.209,-5.164 -0.762,-10.1766 -0.544,-4.9405 -1.082,-9.8232 -0.738,-9.8232 0.324,0 2.262,1.6721 4.308,3.4375 2.34,2.0193 4.823,4.1608 5.192,4.0625 0.347,-0.0921 0.549,-1.921 0.75,-3.75 0.202,-1.8289 0.404,-3.6578 0.75,-3.75 0.363,-0.0964 4.132,4.7071 7.74,9.3052 v 10e-5 1e-4 c 3.282,4.1824 6.43,8.1944 6.76,8.1944 0.172,0 0.552,0.042 1.031,0.095 1.458,0.16 3.824,0.42 3.969,-0.095 0.193,-0.684 -26.307,-35.184 -27,-34.4998 -0.434,0.4286 0.144,5.1508 0.589,8.7887 v 2e-4 1e-4 c 0.265,2.1707 0.483,3.9553 0.411,4.211 -0.082,0.2931 -2.021,-1.1327 -4.367,-2.8587 v -1e-4 c -3.131,-2.3033 -6.989,-5.1412 -8.133,-5.1412 -2,0 -2.166,1.6667 -2,2.5 0,0 2.276,14.7527 3.628,21.5938 -1.926,0.425 -5.271,1.664 -7.128,2.406 l -21.4996,9.5 -4,-12.9998 13.9996,-7 c 2,-1 5,-6 4,-7 -0.8,-0.8 -5.333,0.3334 -7.4996,1 l -13,5 -3.0001,-8.5 30.9997,-16 c 0.667,-1.1666 2.3,-4 3.5,-6 1.5,-2.499999 0.5,-5.999999 0,-6.499999 -0.4,-0.4 -3.5,1.1667 -5,2 -14.1663,6.499999 -42.8996001,19.699999 -44.4996001,20.499999 -1.1597,0.5799 -1.8151,2.0002 -2.4535,3.3839 -0.4626,1.0026 -0.9163,1.9859 -1.5466,2.6161 -1.5,1.5 -4.20229997,5.5 -3.49999997,6.5 0.3252,0.463 2.06379997,-0.2528 4.13509997,-1.1055 2.403,-0.9893 5.2538,-2.163 6.8649001,-1.8945 2.4,0.4 3,2.8334 3,4 l 8.5,26.9998 c 0,0 -4.567,3.684 -3.9999,4.5 0.567,0.816 4.5,1.5 7,1.5 2.5,0 5,0 6.5,-1.5 0.6158,-0.616 5.9183,-4.283 11.8996,-8.42 6.631,-4.585 14.095,-9.748 16.935,-11.971 0.3,1.43 0.536,2.332 0.665,2.391 z"
         fill="#a02494"
         id="path936" />
    </g>
  </g>
  <defs
     id="defs1002">
    <filter
       id="filter0_d_4_6"
       x="0"
       y="0"
       width="276"
       height="424"
       filterUnits="userSpaceOnUse"
       color-interpolation-filters="sRGB">
      <feFlood
         flood-opacity="0"
         result="BackgroundImageFix"
         id="feFlood982" />
      <feColorMatrix
         in="SourceAlpha"
         type="matrix"
         values="0 0 0 0 0 0 0 0 0 0 0 0 0 0 0 0 0 0 127 0"
         result="hardAlpha"
         id="feColorMatrix984" />
      <feOffset
         dy="4"
         id="feOffset986" />
      <feGaussianBlur
         stdDeviation="4"
         id="feGaussianBlur988" />
      <feComposite
         in2="hardAlpha"
         operator="out"
         id="feComposite990" />
      <feColorMatrix
         type="matrix"
         values="0 0 0 0 0 0 0 0 0 0 0 0 0 0 0 0 0 0 0.4 0"
         id="feColorMatrix992" />
      <feBlend
         mode="normal"
         in2="BackgroundImageFix"
         result="effect1_dropShadow_4_6"
         id="feBlend994" />
      <feBlend
         mode="normal"
         in="SourceGraphic"
         in2="effect1_dropShadow_4_6"
         result="shape"
         id="feBlend996" />
    </filter>
    <clipPath
       id="clip0_4_6">
      <rect
         x="8"
         y="4"
         width="260"
         height="408"
         rx="4"
         fill="#ffffff"
         id="rect999" />
    </clipPath>
  </defs>
</svg>
