<?xml version="1.0" encoding="UTF-8" standalone="no"?>
<svg
   width="259"
   height="113.08228"
   viewBox="0 0 259 113.08228"
   fill="none"
   version="1.1"
   id="svg1629"
   sodipodi:docname="fire.svg"
   inkscape:version="1.1.1 (3bf5ae0d25, 2021-09-20)"
   xmlns:inkscape="http://www.inkscape.org/namespaces/inkscape"
   xmlns:sodipodi="http://sodipodi.sourceforge.net/DTD/sodipodi-0.dtd"
   xmlns="http://www.w3.org/2000/svg"
   xmlns:svg="http://www.w3.org/2000/svg">
  <sodipodi:namedview
     id="namedview1631"
     pagecolor="#ffffff"
     bordercolor="#666666"
     borderopacity="1.0"
     inkscape:pageshadow="2"
     inkscape:pageopacity="0.0"
     inkscape:pagecheckerboard="0"
     showgrid="false"
     fit-margin-top="0"
     fit-margin-left="0"
     fit-margin-right="0"
     fit-margin-bottom="0"
     inkscape:zoom="1.2124213"
     inkscape:cx="115.47141"
     inkscape:cy="205.78655"
     inkscape:window-width="1920"
     inkscape:window-height="1059"
     inkscape:window-x="0"
     inkscape:window-y="0"
     inkscape:window-maximized="1"
     inkscape:current-layer="svg1629"
     lock-margins="true" />
  <g
     filter="url(#filter0_d_4_6)"
     id="g1605"
     transform="translate(-407.62587,-141.72258)" />
  <defs
     id="defs1627">
    <filter
       id="filter0_d_4_6"
       x="0"
       y="0"
       width="276"
       height="424"
       filterUnits="userSpaceOnUse"
       color-interpolation-filters="sRGB">
      <feFlood
         flood-opacity="0"
         result="BackgroundImageFix"
         id="feFlood1607" />
      <feColorMatrix
         in="SourceAlpha"
         type="matrix"
         values="0 0 0 0 0 0 0 0 0 0 0 0 0 0 0 0 0 0 127 0"
         result="hardAlpha"
         id="feColorMatrix1609" />
      <feOffset
         dy="4"
         id="feOffset1611" />
      <feGaussianBlur
         stdDeviation="4"
         id="feGaussianBlur1613" />
      <feComposite
         in2="hardAlpha"
         operator="out"
         id="feComposite1615" />
      <feColorMatrix
         type="matrix"
         values="0 0 0 0 0 0 0 0 0 0 0 0 0 0 0 0 0 0 0.4 0"
         id="feColorMatrix1617" />
      <feBlend
         mode="normal"
         in2="BackgroundImageFix"
         result="effect1_dropShadow_4_6"
         id="feBlend1619" />
      <feBlend
         mode="normal"
         in="SourceGraphic"
         in2="effect1_dropShadow_4_6"
         result="shape"
         id="feBlend1621" />
    </filter>
    <clipPath
       id="clip0_4_6">
      <rect
         x="8"
         y="4"
         width="260"
         height="408"
         rx="4"
         fill="#ffffff"
         id="rect1624" />
    </clipPath>
  </defs>
  <path
     d="M 258.99999,94.492278 V 113.08228 H 0 V 82.579278 c 0.93987,-1.391 1.53241,-3.941995 1.54822,-7.488995 0.0277,-7.123 2.75428,-18.805 6.09428,-26.091 3.0037,-6.554 11.4368,-18.48 12.3866,-17.503 0.2762,0.284 -0.8984,3.899 -2.6079,8.018 -5.1446,12.415 -6.8463,21.492 -6.1339,32.849 0.7123,11.640995 2.3031,17.176995 4.7884,16.647995 1.298,-0.275 1.6462,-1.401 1.4365,-4.641 -0.2434,-3.797 -0.1286,-4.028995 1.0368,-2.116 0.7954,1.311 1.3138,6.024 1.3218,12.008 0.007,5.413 0.3541,10.216002 0.7716,10.664002 1.5909,1.636 3.9534,-2.043 3.9534,-6.146002 0,-4.234 2.2874,-9.851 6.965,-17.137 5.659,-8.791995 5.382,-14.612995 -1.2941,-26.049995 -2.4812,-4.274 -4.2739,-7.978 -4.0365,-8.263 1.1002,-1.132 11.9908,11.397 13.9299,15.996 1.8718,4.478 1.9826,6.065 1.1279,16.201 -1.3218,15.629995 0.0597,23.688997 4.076,23.688997 3.067,0 4.3531,-2.303 4.4718,-8.018002 0.1191,-5.373 0.1298,-5.373 0.8825,-1.388 0.9498,5.047 1.7808,5.943 3.6566,3.964 3.245,-3.423 3.7358,-13.92 1.12,-23.892995 -0.4274,-1.628 -0.4987,-2.963 -0.1591,-2.963 1.3929,0 5.4215,9.808995 7.9542,19.374995 2.9522,11.153002 5.105,13.229002 6.7275,6.431 0.6807,-2.825 0.3431,-6.065 -1.3098,-12.618 -2.604,-10.338995 -2.7187,-14.531995 -0.7599,-27.963995 1.7017,-11.641 4.8676,-19.131 9.0624,-21.329 4.669695,-2.483 5.619395,-1.876 2.655395,1.726 -1.491995,1.824 -2.710795,4.193 -2.710795,5.251 0,2.552 2.4456,4.559 4.550895,3.736 2.477299,-0.976 7.875199,-9.891 8.666599,-14.327 1.0685,-5.862 -1.2149,-14.817 -5.8964,-23.1200004 -2.315099,-4.111 -3.996899,-7.693 -3.735799,-7.978 0.8469,-0.871 6.727499,4.033 10.407899,8.67 8.944,11.2750004 11.080996,21.3290004 6.648,31.0980004 -1.436,3.166 -4.748,8.303 -7.3999,11.437 -9.972499,11.845 -10.961894,14.898 -6.8462,21.777 4.9466,8.303995 8.7061,8.018995 7.9938,-0.631 -0.6371,-7.896 0.7993,-6.268 2.8653,3.277 1.951,9.035995 4.313,12.210995 7.676996,10.379995 3.059,-1.686 3.581,-4.559 2.169,-11.926995 -2.664,-13.921 1.939,-29.551 10.882,-36.959 10.844,-8.996 13.139,-8.792 5.422,0.5 -6.45,7.775 -7.44,12.008 -5.303,22.958 0.918,4.762 1.67,10.013 1.67,11.682 -10e-4,4.274 1.781,7.204 4.353,7.204 1.939,0 2.129,-0.472 1.639,-4.037 -0.307,-2.223 -0.93,-5.007 -1.382,-6.188 -0.743,-1.945 -0.645,-2.002 1.014,-0.618 2.782,2.332 4.788,7.001 5.975,13.838995 1.555,9.036 3.02,13.148 4.67,13.148 2.311,0 3.613,-3.676 3.692,-10.420998 0.114,-9.646997 1.856,-12.210997 1.947,-2.849002 0.086,9.077 0.681,11.112 3.202,11.112 2.77,0 4.076,-4.477 5.738,-19.374995 1.662,-15.183 3.245,-20.555 8.35,-28.452 3.732,-5.78 13.93,-16.892 18.124,-19.701 4.908,-3.297 3.871,0.944 -1.666,6.92 -3.427,3.696 -10.368,15.182 -11.713,19.375 -2.573,8.019 1.084,19.416 8.983,27.923 2.303,2.490995 5.54,4.884997 7.163,5.291995 4.036,1.038 9.102,-1.572 12.821,-6.553995 4.274,-5.739 3.997,-11.723 -1.036,-21.899 -2.149,-4.355 -3.712,-8.14 -3.471,-8.385 0.241,-0.247 2.426,1.767 4.868,4.478 8.231,9.199 11.634,20.677 9.655,32.806995 -1.052,6.472 -0.152,10.461 2.6,11.52 4.393,1.738 5.976,-8.752 3.008,-20.107995 -2.616,-10.013 -2.992,-18.276 -1.088,-23.69 2.295,-6.553 6.45,-12.496 10.526,-15.101 4.749,-3.016 5.343,-2.683 2.129,1.225 -5.342,6.513 -7.321,11.723 -7.281,19.253 0.029,9.118 3.328,16.607 8.429,19.09 3.352,1.645 3.696,1.62 6.411,-0.431 3.482,-2.634 7.4,-13.758 8.31,-23.527 0.657,-7.246 -0.724,-13.351 -4.036,-17.707 -3.059,-4.046 -1.243,-4.111 2.778,-0.112 6.925,6.919 7.598,12.211 5.145,39.564 -0.772,8.547995 0.182,11.071995 4.234,11.071995 6.411,0 9.616,-10.582995 4.986,-16.607995 -3.815,-5.006 -2.651,-5.658 1.888,-1.111 4.392,4.437 7.281,11.722995 7.281,18.397995 0,4.885 0.95,6.879 3.253,6.879 0.301,0 0.557,-0.025 0.775,-0.096 z"
     style="clip-rule:evenodd;opacity:1;fill:#ffffff;fill-opacity:0.09025379;fill-rule:evenodd;stroke:none"
     id="path2571"
     sodipodi:nodetypes="ccccccccccccccscccccsccccsccccccsccccccccccccccccsccccsccsccccccccccccccccccccccccsccssc" />
</svg>
